Coordinates
version=1
nRows=26
nColumns=22
inDegrees=yes

Units are S.I. units (second, meters, Newtons, ...)
If the header above contains a line with 'inDegrees', this indicates whether rotational values are in degrees (yes) or radians (no).

endheader
time	pelvis_tilt	pelvis_list	pelvis_rotation	pelvis_tx	pelvis_ty	pelvis_tz	hip_flexion_r	hip_adduction_r	hip_rotation_r	knee_angle_r	ankle_angle_r	subtalar_angle_r	hip_flexion_l	hip_adduction_l	hip_rotation_l	knee_angle_l	ankle_angle_l	subtalar_angle_l	lumbar_extension	lumbar_bending	lumbar_rotation
      2.28000000	      0.43097226	     -3.97951328	     20.13682334	     -0.25147660	      0.89931544	      0.74780230	     27.24783436	      3.19639895	     10.39993980	    -16.89404713	     -0.55986669	      9.73239548	    -10.74797535	      0.12335183	      6.22699282	    -22.51469932	     22.32361504	     -8.97633511	     -9.37026931	     -0.36711372	     -9.90420982
      2.29000000	      0.54792124	     -4.49659255	     20.29033278	     -0.24126528	      0.89930626	      0.74582654	     27.52046460	      3.96716475	     10.22347646	    -18.46761815	     -0.81189453	      9.75990917	    -10.78213498	     -0.50681334	      6.30875566	    -23.52692172	     21.61897474	     -8.84729201	     -9.13227100	      0.27382212	     -9.64626467
      2.30000000	      0.74074101	     -5.00665085	     20.49106472	     -0.23100810	      0.89970145	      0.74357296	     27.60984460	      4.68632849	      9.95290520	    -19.86974461	     -0.88222247	      9.88164906	    -10.78604065	     -1.13937208	      6.43151113	    -24.70801202	     20.69643038	     -8.78121750	     -8.97352190	      0.96470569	     -9.43163399
      2.31000000	      0.95170740	     -5.48064592	     20.73924057	     -0.22076723	      0.90039445	      0.74106505	     27.57046750	      5.30964483	      9.60338749	    -21.09978764	     -0.78998953	     10.10236975	    -10.68869165	     -1.72468732	      6.59442690	    -26.07895643	     19.52072028	     -8.63250282	     -8.84355993	      1.64811356	     -9.28205416
      2.32000000	      1.19466499	     -5.91163025	     21.06370336	     -0.21057603	      0.90139740	      0.73833786	     27.35994830	      5.83799875	      9.19712472	    -22.11250345	     -0.54356478	     10.36253109	    -10.48233771	     -2.27793255	      6.77549929	    -27.65597826	     18.07084211	     -8.42691576	     -8.76462334	      2.30870516	     -9.20105661
      2.33000000	      1.44553386	     -6.27457472	     21.44203327	     -0.20050140	      0.90263959	      0.73546159	     27.01216933	      6.25891321	      8.75569768	    -22.93477652	     -0.14898964	     10.63100929	    -10.12401228	     -2.77394668	      6.89402502	    -29.46781494	     16.30674627	     -8.03741720	     -8.72908693	      2.90499191	     -9.16571726
      2.34000000	      1.72332032	     -6.59406481	     21.94053908	     -0.19061144	      0.90413751	      0.73236776	     26.48157111	      6.57911992	      8.22858540	    -23.49725581	      0.34579573	     10.75538270	     -9.59966935	     -3.25329988	      7.02646312	    -31.52411108	     14.25927405	     -7.82213096	     -8.74635325	      3.47644065	     -9.24510172
      2.35000000	      1.96688220	     -6.85341656	     22.49768837	     -0.18094326	      0.90573442	      0.72919463	     25.87703079	      6.79813628	      7.65737155	    -23.89189875	      0.92675642	     10.80520426	     -8.84190517	     -3.69144166	      7.04504251	    -33.82746026	     11.88431589	     -7.44585724	     -8.76233690	      3.96836850	     -9.37381402
      2.36000000	      2.18973859	     -7.07305795	     23.12185059	     -0.17152385	      0.90742102	      0.72595226	     25.18406822	      6.93996289	      7.02698571	    -24.09473246	      1.53998863	     10.76930680	     -7.86115734	     -4.11815163	      6.97968556	    -36.35043277	      9.19683329	     -7.12699359	     -8.78610103	      4.40230746	     -9.51867577
      2.37000000	      2.36248453	     -7.27023098	     23.79058153	     -0.16237751	      0.90908336	      0.72269733	     24.45840050	      7.02162099	      6.33862878	    -24.13551381	      2.18593833	     10.64271372	     -6.61819240	     -4.55020695	      6.79657893	    -39.08220570	      6.25000405	     -6.80856021	     -8.78136204	      4.77741390	     -9.64323981
      2.38000000	      2.52281318	     -7.45359343	     24.50981545	     -0.15354818	      0.91073808	      0.71943316	     23.67989859	      7.07219338	      5.60243451	    -24.03054476	      2.76699070	     10.47363961	     -5.15948138	     -5.01220383	      6.53099926	    -41.98314954	      3.11248270	     -6.69170259	     -8.79297471	      5.12479081	     -9.78002139
      2.39000000	      2.67265481	     -7.63978268	     25.26246664	     -0.14503018	      0.91232439	      0.71620269	     22.87065718	      7.11855481	      4.82403390	    -23.80324893	      3.27142097	     10.27376068	     -3.49609076	     -5.53146702	      6.17526384	    -45.01705923	     -0.10415218	     -6.75128499	     -8.81608591	      5.45626482	     -9.89982860
      2.40000000	      2.78522400	     -7.86172573	     26.01701977	     -0.13679314	      0.91372745	      0.71305605	     22.09317742	      7.19854343	      4.04574079	    -23.49360878	      3.77092776	     10.00021936	     -1.61762325	     -6.10933587	      5.78573750	    -48.13997565	     -3.27805822	     -6.97005569	     -8.80580476	      5.78827502	     -9.91873454
      2.41000000	      2.92097958	     -8.11106142	     26.77970472	     -0.12881420	      0.91501724	      0.70997112	     21.29550483	      7.33038331	      3.25858956	    -23.11652804	      4.17848337	      9.71696720	      0.38408759	     -6.77227381	      5.36285561	    -51.29320878	     -6.25547224	     -7.34061869	     -8.82920273	      6.14585873	     -9.88540860
      2.42000000	      3.06370768	     -8.39017235	     27.52789082	     -0.12104596	      0.91615009	      0.70698161	     20.50521758	      7.52555647	      2.52502292	    -22.69299999	      4.54837802	      9.39840449	      2.49003968	     -7.49126348	      4.95908926	    -54.41975505	     -8.89268514	     -7.80898570	     -8.86298966	      6.51508706	     -9.77055700
      2.43000000	      3.24155520	     -8.68176955	     28.25153500	     -0.11343877	      0.91717728	      0.70403847	     19.69923867	      7.78228431	      1.85538581	    -22.25343519	      4.88300488	      9.08002357	      4.62448813	     -8.24971679	      4.57944560	    -57.45551003	    -11.00740072	     -8.23899637	     -8.93912748	      6.90198711	     -9.56926801
      2.44000000	      3.47330914	     -8.97005118	     28.94544576	     -0.10592860	      0.91817978	      0.70110055	     18.83259272	      8.09514706	      1.25572475	    -21.76442567	      5.14309374	      8.81022414	      6.72062180	     -9.01255540	      4.26135403	    -60.33526362	    -12.47017432	     -8.47909163	     -9.07490551	      7.29713001	     -9.25153801
      2.45000000	      3.72400731	     -9.23636498	     29.58270432	     -0.09851825	      0.91909939	      0.69818719	     17.97304604	      8.43827207	      0.76873217	    -21.31775637	      5.43806662	      8.53948844	      8.78717877	     -9.73591309	      3.96673347	    -63.03902100	    -13.16571495	     -8.56602859	     -9.24708763	      7.66975307	     -8.85811794
      2.46000000	      3.96766424	     -9.46539549	     30.16613821	     -0.09119813	      0.91994079	      0.69526535	     17.14246430	      8.77511579	      0.37516857	    -20.92910105	      5.75801513	      8.22135767	     10.82194616	    -10.37262914	      3.70381808	    -65.53151747	    -13.11638530	     -8.51732213	     -9.43016465	      7.98852394	     -8.38206875
      2.47000000	      4.28463047	     -9.62417816	     30.70010484	     -0.08388115	      0.92092421	      0.69223233	     16.17955849	      9.11567656	      0.10247942	    -20.48760538	      6.02776247	      8.04343126	     12.68207374	    -10.92126785	      3.46059568	    -67.74149967	    -12.43518080	     -8.36384430	     -9.71324203	      8.27384833	     -7.81623810
      2.48000000	      4.57866194	     -9.72206293	     31.17928953	     -0.07663796	      0.92187907	      0.68913153	     15.24194108	      9.40938244	     -0.09962840	    -20.11167783	      6.34856326	      7.80200334	     14.47982132	    -11.33183561	      3.23327326	    -69.68342258	    -11.34900644	     -8.22694027	     -9.99821963	      8.48214285	     -7.19166850
      2.49000000	      4.89062740	     -9.71741452	     31.60006776	     -0.06943533	      0.92295192	      0.68588942	     14.22807991	      9.63774288	     -0.19776184	    -19.73999605	      6.65106000	      7.66843972	     16.10338981	    -11.56840850	      3.01932667	    -71.29977828	     -9.94771611	     -8.10994282	    -10.34756956	      8.60214164	     -6.50731452
      2.50000000	      5.18901393	     -9.65256213	     31.98085129	     -0.06223572	      0.92406324	      0.68248821	     13.17586541	      9.81050388	     -0.27354374	    -19.34888619	      6.96691486	      7.49356628	     17.61372048	    -11.66778377	      2.81573188	    -72.59447420	     -8.47869591	     -8.09292163	    -10.68853873	      8.65809679	     -5.78997399
      2.51000000	      5.48550384	     -9.49363288	     32.32052824	     -0.05512476	      0.92525819	      0.67891985	     12.07479940	      9.90073409	     -0.30040028	    -18.97519213	      7.30500996	      7.32791654	     18.96619987	    -11.58305811	      2.63861788	    -73.55547945	     -7.01879411	     -8.15179325	    -11.07053255	      8.63215050	     -5.04675789
      2.52000000	      5.76410426	     -9.24801036	     32.62173990	     -0.04809773	      0.92651102	      0.67517206	     10.93130513	      9.89928481	     -0.30665176	    -18.59913177	      7.66417929	      7.18940650	     20.17164579	    -11.31374098	      2.49120833	    -74.18176453	     -5.65916978	     -8.22585995	    -11.46998625	      8.52611417	     -4.29728889
      2.53000000	      6.02027039	     -8.94024418	     32.89952201	     -0.04118388	      0.92777819	      0.67126519	      9.77140158	      9.82266154	     -0.31197199	    -18.22934746	      8.01987713	      7.07396256	     21.25646880	    -10.88357320	      2.39377725	    -74.48663057	     -4.44119704	     -8.24810921	    -11.87141274	      8.35989922	     -3.54925675
